<svg xmlns="http://www.w3.org/2000/svg" viewBox="0 0 75.98 15"><defs><style>.cls-1{fill:#7618f1;}</style></defs><g id="레이어_2" data-name="레이어 2"><g id="레이어_1-2" data-name="레이어 1"><g id="레이어_2-2" data-name="레이어 2"><g id="레이어_1-2-2" data-name="레이어 1-2"><path d="M4.82,6.8v4a1.46,1.46,0,0,0,1.46,1.46h1V15H6a4.12,4.12,0,0,1-4.12-4.12h0V6.8H0V4.07H1.82V1.47h3v2.6H7.3V6.8Z"/><path d="M16.31,4.07V7.14c-1.89,0-2.91,1-2.91,2.67V15h-3V4.07h3V5.63A3.61,3.61,0,0,1,16.31,4.07Z"/><path d="M29.29,10.49h-8a2.5,2.5,0,0,0,2.5,1.91A2.53,2.53,0,0,0,26,11.35h3.17A5.57,5.57,0,0,1,23.73,15a5.47,5.47,0,1,1,0-10.94,5.44,5.44,0,0,1,5.64,5.51A4.57,4.57,0,0,1,29.29,10.49Zm-8-2h4.83a2.5,2.5,0,0,0-4.83,0Z"/><path d="M42.11,8.05v7h-3V9.05a1.93,1.93,0,0,0-2-2.09,2,2,0,0,0-2.17,2.13V15H32V4.07h3v1.4a4,4,0,0,1,3.18-1.4A3.76,3.76,0,0,1,42.11,8.05Z"/><path class="cls-1" d="M44.87,6.5A2.06,2.06,0,0,1,49,6.5a2.06,2.06,0,0,1-4.12,0Zm0,6.45A2.06,2.06,0,1,1,46.92,15,2,2,0,0,1,44.87,13Z"/><path d="M62.9,9.53a5.15,5.15,0,0,1-5,5.47,4.12,4.12,0,0,1-3.15-1.41V15h-3V0h3V5.47a4.12,4.12,0,0,1,3.16-1.41C60.75,4.06,62.9,6.41,62.9,9.53Zm-3.07,0a2.56,2.56,0,1,0-5.12,0,2.56,2.56,0,1,0,5.12,0Z"/><path d="M75.9,10.49h-8a2.5,2.5,0,0,0,2.5,1.91,2.52,2.52,0,0,0,2.19-1.05h3.18A5.57,5.57,0,0,1,70.35,15,5.47,5.47,0,1,1,76,9.57,4.57,4.57,0,0,1,75.9,10.49Zm-8-2h4.84a2.5,2.5,0,0,0-4.84,0Z"/></g></g></g></g></svg>